<svg width="32" height="32" viewBox="0 0 32 32" fill="none" xmlns="http://www.w3.org/2000/svg">
<g id="Quikest Logo">
<path id="Vector" d="M18.7196 19.3065C18.3425 19.5248 17.9095 19.5248 17.5324 19.3065L16.465 18.6907C15.9743 18.4076 15.3443 18.5762 15.0612 19.0669L13.7427 21.35C13.2724 22.1645 13.2715 23.0962 13.74 23.9116C14.2085 24.7271 15.0142 25.1956 15.9547 25.2H16C17.7036 25.2 19.3079 24.7741 20.7116 24.0234L22.732 26.1042C23.2831 26.6721 24.079 26.8389 24.8119 26.5425C25.5448 26.2453 26 25.57 26 24.7794V15.2293C26 9.71111 21.5271 5.20001 16 5.20001C10.4729 5.20001 6 9.67739 6 15.2C6 17.3659 6.68855 19.3713 7.85892 21.0084C8.38154 21.7395 9.17391 22.1228 10.0719 22.0793C10.9698 22.0359 11.7205 21.5771 12.1704 20.799L13.6433 18.2479C13.9264 17.7581 13.7569 17.1273 13.2671 16.8442L12.1996 16.2275C11.8217 16.0101 11.606 15.6348 11.606 15.1991C11.606 14.7635 11.8217 14.389 12.1996 14.1716L17.5324 11.0927C17.9095 10.8744 18.3425 10.8744 18.7196 11.0927C19.0976 11.3109 19.3132 11.6845 19.3132 12.121V18.2781C19.3132 18.7147 19.0976 19.0882 18.7196 19.3065Z" fill="#18181B"/>
</g>
</svg>
